<svg version="1.1" id="Layer_1" xmlns="http://www.w3.org/2000/svg" xmlns:xlink="http://www.w3.org/1999/xlink" x="0px" y="0px"
	 width="100%" viewBox="0 0 560 239" enable-background="new 0 0 560 239" xml:space="preserve">
<path fill="#000000" opacity="1.000000" stroke="none" 
	d="
M428.000000,240.000000 
	C285.377808,240.000000 143.255630,240.000000 1.066718,240.000000 
	C1.066718,160.402786 1.066718,80.805496 1.066718,1.104106 
	C187.666641,1.104106 374.333313,1.104106 560.979187,1.104106 
	C560.979187,80.744286 560.979187,160.372147 560.979187,240.000000 
	C516.805603,240.000000 472.652802,240.000000 428.000000,240.000000 
M119.543472,212.980957 
	C125.810966,212.327728 132.074158,211.629410 138.346802,211.030319 
	C153.041809,209.626862 167.754349,208.395828 182.435898,206.865723 
	C203.214157,204.700211 223.960022,202.223007 244.740112,200.076324 
	C262.725189,198.218384 280.738434,196.633514 298.739685,194.932571 
	C302.187469,194.606766 304.139587,193.208130 304.028168,189.263245 
	C303.807129,181.438202 303.848602,173.600800 303.994324,165.772461 
	C304.065582,161.944885 302.239441,160.955597 298.777679,160.958298 
	C295.418060,160.960938 293.888702,162.115875 293.984131,165.610123 
	C294.125092,170.771088 293.890778,175.942032 294.018616,181.103714 
	C294.099060,184.352249 293.041595,185.839767 289.530548,186.129501 
	C279.283691,186.975037 269.065887,188.177063 258.839569,189.266281 
	C244.166000,190.829163 229.501007,192.474991 214.821136,193.975555 
	C200.296692,195.460205 185.753113,196.757431 171.227310,198.229309 
	C152.581497,200.118683 133.949173,202.141327 115.303009,204.027084 
	C103.752037,205.195267 92.174599,206.106766 80.629723,207.328918 
	C64.314529,209.056091 48.024872,211.028534 31.699949,212.651291 
	C30.592730,212.761368 28.654690,211.040619 28.215601,209.782928 
	C27.589735,207.990265 27.962528,205.838028 27.962461,203.839386 
	C27.960463,144.522018 27.964386,85.204659 27.973412,25.887293 
	C27.973616,24.555674 27.622173,22.992239 28.193115,21.953951 
	C28.837219,20.782618 30.338699,19.322609 31.470541,19.319847 
	C35.100414,19.310980 38.732635,19.909111 42.362442,20.287514 
	C57.378117,21.852882 72.391609,23.439365 87.409096,24.987087 
	C98.467270,26.126753 109.532669,27.196487 120.590797,28.336666 
	C135.442734,29.868011 150.288452,31.459631 165.141220,32.982792 
	C176.206467,34.117542 187.282654,35.146046 198.346741,36.291573 
	C213.023010,37.811085 227.692078,39.399845 242.364532,40.956326 
	C257.867676,42.600925 273.358704,44.378174 288.882446,45.797234 
	C293.161316,46.188377 294.168182,48.218334 294.026947,51.958500 
	C293.863586,56.284481 294.072021,60.623451 293.963623,64.952888 
	C293.875488,68.470825 294.200592,71.083015 298.894379,71.083862 
	C303.364258,71.084671 304.137024,68.952835 304.038849,65.179283 
	C303.856995,58.185905 304.010742,51.184330 303.977631,44.186390 
	C303.948730,38.073414 303.154022,37.484283 297.168579,36.962002 
	C282.461792,35.678696 267.762421,34.291515 253.078979,32.764179 
	C235.596634,30.945704 218.144897,28.831131 200.659866,27.040545 
	C182.674637,25.198732 164.653580,23.706177 146.669510,21.853823 
	C125.723434,19.696383 104.805779,17.264366 83.865921,15.044609 
	C64.733292,13.016431 45.581947,11.164508 26.450546,9.125175 
	C19.908955,8.427868 19.010406,9.072484 19.004442,15.902943 
	C18.983492,39.896366 18.986916,63.889809 18.985121,87.883247 
	C18.981903,130.871216 19.020077,173.859283 18.919464,216.847031 
	C18.909615,221.055679 19.622299,223.582520 24.635618,222.953796 
	C31.546099,222.087173 38.503300,221.600708 45.430988,220.862305 
	C69.831429,218.261505 94.227806,215.622650 119.543472,212.980957 
M158.797318,94.704956 
	C163.740616,102.558334 162.246338,110.370140 158.872498,118.303352 
	C156.846252,123.067810 155.254913,128.017212 153.153366,133.740707 
	C152.104477,131.959946 151.566269,131.299576 151.292175,130.543457 
	C145.688293,115.084610 140.090851,99.623306 134.546051,84.143188 
	C132.197876,77.587502 127.937042,76.012520 121.545120,79.470032 
	C121.523376,79.796509 121.393738,80.161812 121.495247,80.443947 
	C129.872009,103.727203 138.264191,127.004913 146.662598,150.280380 
	C148.113724,154.302063 151.667465,153.160202 154.349228,152.842834 
	C156.206512,152.623062 158.754333,151.144333 159.457886,149.550308 
	C161.933197,143.941956 163.731750,138.035980 165.815018,132.253006 
	C166.674622,129.866852 167.604980,127.506180 168.863739,124.181511 
	C169.938873,126.281219 170.558044,127.239616 170.943665,128.284241 
	C173.473572,135.137756 176.028214,141.983963 178.410950,148.889069 
	C179.330048,151.552551 180.687042,152.807480 183.709900,153.097519 
	C188.893402,153.594910 191.374756,151.740646 193.080414,146.699707 
	C200.110229,125.923698 207.618484,105.309769 214.903519,84.619598 
	C215.541824,82.806740 215.835770,80.872635 216.284729,79.015236 
	C207.302261,76.501404 205.505951,77.419739 202.835602,85.113327 
	C197.713852,99.869667 192.523056,114.602112 187.324173,129.331512 
	C186.882706,130.582306 186.166168,131.736008 185.035477,134.038284 
	C181.649353,124.823158 178.724564,116.918587 175.840424,108.999214 
	C172.884384,100.882355 169.878647,92.781883 167.061768,84.616585 
	C164.651733,77.630562 160.327881,75.889687 153.284363,79.581711 
	C155.018646,84.351120 156.768372,89.163002 158.797318,94.704956 
M85.731659,90.006828 
	C94.233170,88.660393 100.891861,92.530174 107.003593,97.697197 
	C109.264458,99.608589 111.043289,99.468369 113.041977,97.451691 
	C114.521935,95.958405 116.184219,94.645805 117.739403,93.275513 
	C117.414398,92.520973 117.313393,91.998596 117.016151,91.637947 
	C105.677803,77.880959 82.949501,74.629784 68.078300,84.594604 
	C50.940079,96.078506 45.839542,119.371864 56.786072,136.071808 
	C70.357979,156.776978 95.813171,157.919083 112.119545,144.976624 
	C115.126625,142.589890 117.801872,138.672409 118.681030,134.995392 
	C119.811935,130.265472 118.916992,125.064140 119.008804,120.067970 
	C119.064690,117.026245 117.587029,115.926849 114.709969,115.998825 
	C111.213852,116.086288 107.712997,116.042648 104.215233,115.988373 
	C100.864182,115.936371 97.955734,115.901512 97.903061,120.734970 
	C97.856087,125.044754 98.864914,127.230507 103.675079,127.099388 
	C107.572662,126.993149 109.352760,130.008881 107.521332,133.392975 
	C106.546219,135.194763 104.776947,136.769547 103.016609,137.904800 
	C98.143578,141.047424 92.773895,142.225769 86.885010,142.049438 
	C73.948387,141.662079 62.590034,130.639740 62.021423,117.461243 
	C61.420811,103.541130 71.560234,91.342628 85.731659,90.006828 
M405.115631,81.180183 
	C395.387146,77.510223 385.233337,77.957283 375.108368,78.030746 
	C372.059601,78.052864 371.048553,79.635994 371.052734,82.426750 
	C371.086060,104.554443 371.104034,126.682198 371.079376,148.809891 
	C371.076111,151.748291 372.343445,153.032379 375.286163,152.996735 
	C380.941895,152.928238 386.599945,152.942322 392.255737,153.017792 
	C399.939667,153.120285 406.746277,150.161285 412.502960,145.689865 
	C435.213318,128.049911 431.556580,94.136909 405.115631,81.180183 
M297.842285,81.441971 
	C288.788971,77.044495 279.182983,79.449585 269.806824,79.404648 
	C268.885925,79.400238 267.155334,82.193062 267.143372,83.698227 
	C266.972229,105.184700 267.065704,126.673119 267.001984,148.160782 
	C266.992126,151.475189 268.135986,152.992401 271.629242,153.032272 
	C277.202698,153.095856 277.906586,152.601196 277.947632,146.886429 
	C277.984833,141.708038 277.955475,136.529144 277.955475,131.350479 
	C278.462555,131.258865 278.969604,131.167252 279.476685,131.075623 
	C282.350067,134.447800 285.422516,137.672302 288.055908,141.222488 
	C293.746490,148.894257 299.433502,156.293137 311.620544,152.114334 
	C304.783569,144.066971 298.043793,136.134033 291.235809,128.120819 
	C314.132111,115.323311 317.037811,95.285431 297.842285,81.441971 
M470.499420,128.998611 
	C475.160309,128.990967 479.829041,128.812927 484.479706,129.027115 
	C488.531586,129.213745 490.062683,127.719589 490.050415,123.557053 
	C490.016693,112.130684 481.219299,100.964371 469.420868,97.901169 
	C456.011963,94.419846 443.362061,99.811951 436.904449,111.761497 
	C429.391571,125.663788 434.680237,142.828751 448.705261,150.291916 
	C462.626373,157.699768 480.436279,151.899460 486.488007,138.436890 
	C483.802521,136.813049 481.046783,135.146729 478.155060,133.398193 
	C472.037506,139.942764 465.711426,145.425598 456.276917,141.591965 
	C451.145386,139.506790 447.179504,136.042221 444.585327,128.997147 
	C453.690277,128.997147 461.595062,128.997147 470.499420,128.998611 
M523.837708,126.253189 
	C522.665710,128.897644 521.493713,131.542099 519.980591,134.956192 
	C518.988525,133.153168 518.358459,132.235626 517.949036,131.228424 
	C514.260437,122.155083 510.637573,113.055000 506.941101,103.984901 
	C503.692993,96.014862 502.114227,95.312691 493.613922,97.828018 
	C493.595947,98.149910 493.469238,98.514038 493.575500,98.787659 
	C500.245758,115.962601 506.965485,133.118408 513.598755,150.307587 
	C515.055847,154.083481 518.265625,153.171646 520.798584,152.844101 
	C522.681335,152.600632 525.365662,151.289261 525.997314,149.755341 
	C532.698669,133.480972 539.078918,117.073952 545.473999,100.674767 
	C545.906067,99.566833 545.745361,98.227730 545.859009,97.010712 
	C543.886414,97.010712 542.341492,97.258438 540.907837,96.964134 
	C536.650818,96.090286 534.812073,97.924408 533.425232,101.907631 
	C530.643433,109.897438 527.208252,117.659760 523.837708,126.253189 
M224.998047,109.500000 
	C225.009079,122.323677 225.033676,135.147369 225.020248,147.971024 
	C225.017395,150.692276 225.283981,153.006653 228.895248,152.982010 
	C237.387894,152.924011 245.881180,152.951614 254.374191,152.963852 
	C258.149994,152.969299 257.973145,150.276718 257.961456,147.732513 
	C257.949219,145.073868 258.361267,142.085190 254.271255,142.062759 
	C250.441208,142.041733 246.611130,142.030441 242.781082,142.010361 
	C236.150269,141.975616 236.008011,141.883820 235.994171,135.378448 
	C235.957306,118.058228 235.881409,100.737213 236.020737,83.418137 
	C236.054321,79.244568 234.428070,77.962959 230.405319,77.921005 
	C226.212067,77.877258 224.864136,79.476753 224.960800,83.520294 
	C225.159744,91.842422 225.007858,100.172935 224.998047,109.500000 
z"/>
<path fill="#193F47" opacity="1.000000" stroke="none" 
	d="
M119.084602,212.989594 
	C94.227806,215.622650 69.831429,218.261505 45.430988,220.862305 
	C38.503300,221.600708 31.546099,222.087173 24.635618,222.953796 
	C19.622299,223.582520 18.909615,221.055679 18.919464,216.847031 
	C19.020077,173.859283 18.981903,130.871216 18.985121,87.883247 
	C18.986916,63.889809 18.983492,39.896366 19.004442,15.902943 
	C19.010406,9.072484 19.908955,8.427868 26.450546,9.125175 
	C45.581947,11.164508 64.733292,13.016431 83.865921,15.044609 
	C104.805779,17.264366 125.723434,19.696383 146.669510,21.853823 
	C164.653580,23.706177 182.674637,25.198732 200.659866,27.040545 
	C218.144897,28.831131 235.596634,30.945704 253.078979,32.764179 
	C267.762421,34.291515 282.461792,35.678696 297.168579,36.962002 
	C303.154022,37.484283 303.948730,38.073414 303.977631,44.186390 
	C304.010742,51.184330 303.856995,58.185905 304.038849,65.179283 
	C304.137024,68.952835 303.364258,71.084671 298.894379,71.083862 
	C294.200592,71.083015 293.875488,68.470825 293.963623,64.952888 
	C294.072021,60.623451 293.863586,56.284481 294.026947,51.958500 
	C294.168182,48.218334 293.161316,46.188377 288.882446,45.797234 
	C273.358704,44.378174 257.867676,42.600925 242.364532,40.956326 
	C227.692078,39.399845 213.023010,37.811085 198.346741,36.291573 
	C187.282654,35.146046 176.206467,34.117542 165.141220,32.982792 
	C150.288452,31.459631 135.442734,29.868011 120.590797,28.336666 
	C109.532669,27.196487 98.467270,26.126753 87.409096,24.987087 
	C72.391609,23.439365 57.378117,21.852882 42.362442,20.287514 
	C38.732635,19.909111 35.100414,19.310980 31.470541,19.319847 
	C30.338699,19.322609 28.837219,20.782618 28.193115,21.953951 
	C27.622173,22.992239 27.973616,24.555674 27.973412,25.887293 
	C27.964386,85.204659 27.960463,144.522018 27.962461,203.839386 
	C27.962528,205.838028 27.589735,207.990265 28.215601,209.782928 
	C28.654690,211.040619 30.592730,212.761368 31.699949,212.651291 
	C48.024872,211.028534 64.314529,209.056091 80.629723,207.328918 
	C92.174599,206.106766 103.752037,205.195267 115.303009,204.027084 
	C133.949173,202.141327 152.581497,200.118683 171.227310,198.229309 
	C185.753113,196.757431 200.296692,195.460205 214.821136,193.975555 
	C229.501007,192.474991 244.166000,190.829163 258.839569,189.266281 
	C269.065887,188.177063 279.283691,186.975037 289.530548,186.129501 
	C293.041595,185.839767 294.099060,184.352249 294.018616,181.103714 
	C293.890778,175.942032 294.125092,170.771088 293.984131,165.610123 
	C293.888702,162.115875 295.418060,160.960938 298.777679,160.958298 
	C302.239441,160.955597 304.065582,161.944885 303.994324,165.772461 
	C303.848602,173.600800 303.807129,181.438202 304.028168,189.263245 
	C304.139587,193.208130 302.187469,194.606766 298.739685,194.932571 
	C280.738434,196.633514 262.725189,198.218384 244.740112,200.076324 
	C223.960022,202.223007 203.214157,204.700211 182.435898,206.865723 
	C167.754349,208.395828 153.041809,209.626862 138.346802,211.030319 
	C132.074158,211.629410 125.810966,212.327728 119.084602,212.989594 
z"/>
<path fill="#193F47" opacity="1.000000" stroke="none" 
	d="
M158.657715,94.339920 
	C156.768372,89.163002 155.018646,84.351120 153.284363,79.581711 
	C160.327881,75.889687 164.651733,77.630562 167.061768,84.616585 
	C169.878647,92.781883 172.884384,100.882355 175.840424,108.999214 
	C178.724564,116.918587 181.649353,124.823158 185.035477,134.038284 
	C186.166168,131.736008 186.882706,130.582306 187.324173,129.331512 
	C192.523056,114.602112 197.713852,99.869667 202.835602,85.113327 
	C205.505951,77.419739 207.302261,76.501404 216.284729,79.015236 
	C215.835770,80.872635 215.541824,82.806740 214.903519,84.619598 
	C207.618484,105.309769 200.110229,125.923698 193.080414,146.699707 
	C191.374756,151.740646 188.893402,153.594910 183.709900,153.097519 
	C180.687042,152.807480 179.330048,151.552551 178.410950,148.889069 
	C176.028214,141.983963 173.473572,135.137756 170.943665,128.284241 
	C170.558044,127.239616 169.938873,126.281219 168.863739,124.181511 
	C167.604980,127.506180 166.674622,129.866852 165.815018,132.253006 
	C163.731750,138.035980 161.933197,143.941956 159.457886,149.550308 
	C158.754333,151.144333 156.206512,152.623062 154.349228,152.842834 
	C151.667465,153.160202 148.113724,154.302063 146.662598,150.280380 
	C138.264191,127.004913 129.872009,103.727203 121.495247,80.443947 
	C121.393738,80.161812 121.523376,79.796509 121.548050,79.470230 
	C127.937042,76.012520 132.197876,77.587502 134.546051,84.143188 
	C140.090851,99.623306 145.688293,115.084610 151.292175,130.543457 
	C151.566269,131.299576 152.104477,131.959946 153.153366,133.740707 
	C155.254913,128.017212 156.846252,123.067810 158.872498,118.303352 
	C162.246338,110.370140 163.740616,102.558334 158.657715,94.339920 
z"/>
<path fill="#193F47" opacity="1.000000" stroke="none" 
	d="
M85.281830,90.012604 
	C71.560234,91.342628 61.420811,103.541130 62.021423,117.461243 
	C62.590034,130.639740 73.948387,141.662079 86.885010,142.049438 
	C92.773895,142.225769 98.143578,141.047424 103.016609,137.904800 
	C104.776947,136.769547 106.546219,135.194763 107.521332,133.392975 
	C109.352760,130.008881 107.572662,126.993149 103.675079,127.099388 
	C98.864914,127.230507 97.856087,125.044754 97.903061,120.734970 
	C97.955734,115.901512 100.864182,115.936371 104.215233,115.988373 
	C107.712997,116.042648 111.213852,116.086288 114.709969,115.998825 
	C117.587029,115.926849 119.064690,117.026245 119.008804,120.067970 
	C118.916992,125.064140 119.811935,130.265472 118.681030,134.995392 
	C117.801872,138.672409 115.126625,142.589890 112.119545,144.976624 
	C95.813171,157.919083 70.357979,156.776978 56.786072,136.071808 
	C45.839542,119.371864 50.940079,96.078506 68.078300,84.594604 
	C82.949501,74.629784 105.677803,77.880959 117.016151,91.637947 
	C117.313393,91.998596 117.414398,92.520973 117.739403,93.275513 
	C116.184219,94.645805 114.521935,95.958405 113.041977,97.451691 
	C111.043289,99.468369 109.264458,99.608589 107.003593,97.697197 
	C100.891861,92.530174 94.233170,88.660393 85.281830,90.012604 
z"/>
<path fill="#193F48" opacity="1.000000" stroke="none" 
	d="
M405.473694,81.326172 
	C431.556580,94.136909 435.213318,128.049911 412.502960,145.689865 
	C406.746277,150.161285 399.939667,153.120285 392.255737,153.017792 
	C386.599945,152.942322 380.941895,152.928238 375.286163,152.996735 
	C372.343445,153.032379 371.076111,151.748291 371.079376,148.809891 
	C371.104034,126.682198 371.086060,104.554443 371.052734,82.426750 
	C371.048553,79.635994 372.059601,78.052864 375.108368,78.030746 
	C385.233337,77.957283 395.387146,77.510223 405.473694,81.326172 
M381.662262,91.638138 
	C381.721008,92.739502 381.779755,93.840866 381.855072,95.507622 
	C381.842896,95.695778 381.830750,95.883934 381.596161,96.850876 
	C381.398376,103.621246 381.009216,110.392868 381.053772,117.161644 
	C381.103668,124.749611 381.545959,132.335007 382.200470,140.634094 
	C386.153595,141.144104 390.106750,141.654129 394.689270,142.327271 
	C396.798462,141.617920 398.907654,140.908585 401.465637,140.082870 
	C401.465637,140.082870 401.920898,139.995132 402.262817,139.739624 
	C402.487366,139.566223 402.707001,139.386795 403.419098,138.929443 
	C403.888092,138.612106 404.357056,138.294785 405.206238,137.706131 
	C405.456390,137.521835 405.701965,137.331619 406.535919,136.787140 
	C413.182159,131.037918 417.226562,123.632904 416.719849,114.996971 
	C415.741821,98.327431 402.743958,87.754356 385.937225,89.103401 
	C384.520233,89.217140 383.189728,90.408813 381.662262,91.638138 
z"/>
<path fill="#193F47" opacity="1.000000" stroke="none" 
	d="
M298.165527,81.635345 
	C317.037811,95.285431 314.132111,115.323311 291.235809,128.120819 
	C298.043793,136.134033 304.783569,144.066971 311.620544,152.114334 
	C299.433502,156.293137 293.746490,148.894257 288.055908,141.222488 
	C285.422516,137.672302 282.350067,134.447800 279.476685,131.075623 
	C278.969604,131.167252 278.462555,131.258865 277.955475,131.350479 
	C277.955475,136.529144 277.984833,141.708038 277.947632,146.886429 
	C277.906586,152.601196 277.202698,153.095856 271.629242,153.032272 
	C268.135986,152.992401 266.992126,151.475189 267.001984,148.160782 
	C267.065704,126.673119 266.972229,105.184700 267.143372,83.698227 
	C267.155334,82.193062 268.885925,79.400238 269.806824,79.404648 
	C279.182983,79.449585 288.788971,77.044495 298.165527,81.635345 
M293.484344,91.877388 
	C289.676849,90.927818 285.903534,89.787987 282.049774,89.095963 
	C279.506195,88.639191 277.986389,89.987915 278.003967,92.788658 
	C278.045685,99.433075 277.822296,106.089195 278.191467,112.713547 
	C278.270966,114.139442 280.162018,116.234192 281.625214,116.676849 
	C287.265442,118.383148 295.729797,114.421265 298.222565,109.372429 
	C301.429993,102.876137 300.137146,97.353912 293.484344,91.877388 
z"/>
<path fill="#183F47" opacity="1.000000" stroke="none" 
	d="
M469.999634,128.997879 
	C461.595062,128.997147 453.690277,128.997147 444.585327,128.997147 
	C447.179504,136.042221 451.145386,139.506790 456.276917,141.591965 
	C465.711426,145.425598 472.037506,139.942764 478.155060,133.398193 
	C481.046783,135.146729 483.802521,136.813049 486.488007,138.436890 
	C480.436279,151.899460 462.626373,157.699768 448.705261,150.291916 
	C434.680237,142.828751 429.391571,125.663788 436.904449,111.761497 
	C443.362061,99.811951 456.011963,94.419846 469.420868,97.901169 
	C481.219299,100.964371 490.016693,112.130684 490.050415,123.557053 
	C490.062683,127.719589 488.531586,129.213745 484.479706,129.027115 
	C479.829041,128.812927 475.160309,128.990967 469.999634,128.997879 
M447.874969,120.432693 
	C457.553680,120.344978 467.232422,120.257263 477.394653,119.626518 
	C477.153870,117.906662 477.466431,115.797020 476.576843,114.534248 
	C472.670746,108.989510 467.203156,106.471184 460.316132,106.979355 
	C453.783752,107.461342 449.147888,110.780716 446.097443,116.313400 
	C445.625702,117.169044 446.726654,118.891808 447.874969,120.432693 
z"/>
<path fill="#193F47" opacity="1.000000" stroke="none" 
	d="
M523.940247,125.884583 
	C527.208252,117.659760 530.643433,109.897438 533.425232,101.907631 
	C534.812073,97.924408 536.650818,96.090286 540.907837,96.964134 
	C542.341492,97.258438 543.886414,97.010712 545.859009,97.010712 
	C545.745361,98.227730 545.906067,99.566833 545.473999,100.674767 
	C539.078918,117.073952 532.698669,133.480972 525.997314,149.755341 
	C525.365662,151.289261 522.681335,152.600632 520.798584,152.844101 
	C518.265625,153.171646 515.055847,154.083481 513.598755,150.307587 
	C506.965485,133.118408 500.245758,115.962601 493.575500,98.787659 
	C493.469238,98.514038 493.595947,98.149910 493.618652,97.828278 
	C502.114227,95.312691 503.692993,96.014862 506.941101,103.984901 
	C510.637573,113.055000 514.260437,122.155083 517.949036,131.228424 
	C518.358459,132.235626 518.988525,133.153168 519.980591,134.956192 
	C521.493713,131.542099 522.665710,128.897644 523.940247,125.884583 
z"/>
<path fill="#193F47" opacity="1.000000" stroke="none" 
	d="
M224.999207,109.000000 
	C225.007858,100.172935 225.159744,91.842422 224.960800,83.520294 
	C224.864136,79.476753 226.212067,77.877258 230.405319,77.921005 
	C234.428070,77.962959 236.054321,79.244568 236.020737,83.418137 
	C235.881409,100.737213 235.957306,118.058228 235.994171,135.378448 
	C236.008011,141.883820 236.150269,141.975616 242.781082,142.010361 
	C246.611130,142.030441 250.441208,142.041733 254.271255,142.062759 
	C258.361267,142.085190 257.949219,145.073868 257.961456,147.732513 
	C257.973145,150.276718 258.149994,152.969299 254.374191,152.963852 
	C245.881180,152.951614 237.387894,152.924011 228.895248,152.982010 
	C225.283981,153.006653 225.017395,150.692276 225.020248,147.971024 
	C225.033676,135.147369 225.009079,122.323677 224.999207,109.000000 
z"/>
<path fill="#000000" opacity="1.000000" stroke="none" 
	d="
M401.920898,139.995132 
	C401.920898,139.995132 401.465637,140.082870 400.876709,140.150803 
	C398.211823,140.867203 396.135834,141.515671 394.059875,142.164124 
	C390.106750,141.654129 386.153595,141.144104 382.054626,139.816422 
	C381.878693,124.689857 381.848633,110.380974 381.818542,96.072083 
	C381.830750,95.883934 381.842896,95.695778 381.891541,94.841339 
	C381.891663,93.149940 381.855377,92.124817 381.819061,91.099701 
	C383.189728,90.408813 384.520233,89.217140 385.937225,89.103401 
	C402.743958,87.754356 415.741821,98.327431 416.719849,114.996971 
	C417.226562,123.632904 413.182159,131.037918 406.007782,137.029572 
	C405.203308,137.452972 404.985413,137.688126 404.826019,137.977448 
	C404.357056,138.294785 403.888092,138.612106 402.963745,139.138214 
	C402.263336,139.518387 402.067505,139.734436 401.920898,139.995132 
z"/>
<path fill="#234440" opacity="1.000000" stroke="none" 
	d="
M381.707336,96.461479 
	C381.848633,110.380974 381.878693,124.689857 381.863159,139.460129 
	C381.545959,132.335007 381.103668,124.749611 381.053772,117.161644 
	C381.009216,110.392868 381.398376,103.621246 381.707336,96.461479 
z"/>
<path fill="#204042" opacity="1.000000" stroke="none" 
	d="
M394.374573,142.245697 
	C396.135834,141.515671 398.211823,140.867203 400.652313,140.208984 
	C398.907654,140.908585 396.798462,141.617920 394.374573,142.245697 
z"/>
<path fill="#234440" opacity="1.000000" stroke="none" 
	d="
M381.740662,91.368912 
	C381.855377,92.124817 381.891663,93.149940 381.883240,94.558647 
	C381.779755,93.840866 381.721008,92.739502 381.740662,91.368912 
z"/>
<path fill="#204042" opacity="1.000000" stroke="none" 
	d="
M405.016113,137.841797 
	C404.985413,137.688126 405.203308,137.452972 405.711304,137.203735 
	C405.701965,137.331619 405.456390,137.521835 405.016113,137.841797 
z"/>
<path fill="#204042" opacity="1.000000" stroke="none" 
	d="
M402.091858,139.867371 
	C402.067505,139.734436 402.263336,139.518387 402.715057,139.274170 
	C402.707001,139.386795 402.487366,139.566223 402.091858,139.867371 
z"/>
<path fill="#000000" opacity="1.000000" stroke="none" 
	d="
M293.838013,92.016121 
	C300.137146,97.353912 301.429993,102.876137 298.222565,109.372429 
	C295.729797,114.421265 287.265442,118.383148 281.625214,116.676849 
	C280.162018,116.234192 278.270966,114.139442 278.191467,112.713547 
	C277.822296,106.089195 278.045685,99.433075 278.003967,92.788658 
	C277.986389,89.987915 279.506195,88.639191 282.049774,89.095963 
	C285.903534,89.787987 289.676849,90.927818 293.838013,92.016121 
z"/>
<path fill="#000000" opacity="1.000000" stroke="none" 
	d="
M447.100311,120.213570 
	C446.726654,118.891808 445.625702,117.169044 446.097443,116.313400 
	C449.147888,110.780716 453.783752,107.461342 460.316132,106.979355 
	C467.203156,106.471184 472.670746,108.989510 476.576843,114.534248 
	C477.466431,115.797020 477.153870,117.906662 476.692322,119.855423 
	C466.360107,120.127411 456.730194,120.170486 447.100311,120.213570 
z"/>
<path fill="#284540" opacity="1.000000" stroke="none" 
	d="
M447.487640,120.323135 
	C456.730194,120.170486 466.360107,120.127411 476.450562,120.126938 
	C467.232422,120.257263 457.553680,120.344978 447.487640,120.323135 
z"/>
</svg>